<?xml version="1.0" standalone="no"?>
<!DOCTYPE svg PUBLIC "-//W3C//DTD SVG 20010904//EN"
 "http://www.w3.org/TR/2001/REC-SVG-20010904/DTD/svg10.dtd">
<svg version="1.0" xmlns="http://www.w3.org/2000/svg"
 width="512.000000pt" height="512.000000pt" viewBox="0 0 512.000000 512.000000"
 preserveAspectRatio="xMidYMid meet">

<g transform="translate(0.000000,512.000000) scale(0.100000,-0.100000)"
fill="#15803d" stroke="none">
<path d="M2380 5113 c-341 -33 -578 -91 -848 -209 -288 -126 -536 -295 -771
-527 -413 -408 -665 -919 -743 -1507 -16 -123 -16 -497 0 -620 78 -588 330
-1099 743 -1507 183 -180 363 -315 574 -430 911 -494 2027 -394 2830 254 122
98 299 276 397 398 537 671 699 1581 427 2398 -295 888 -1052 1549 -1958 1712
-216 39 -484 55 -651 38z m225 -1794 c34 -9 117 -87 567 -537 291 -290 535
-541 543 -558 22 -48 19 -115 -8 -155 -32 -49 -105 -83 -159 -74 -41 6 -70 34
-516 478 l-472 472 -468 -467 c-257 -257 -480 -472 -495 -478 -64 -23 -145 4
-186 65 -31 45 -32 120 -3 167 12 18 254 266 540 551 574 574 560 562 657 536z"/>
</g>
</svg>
